<svg xmlns="http://www.w3.org/2000/svg" viewBox="0 0 420 820" font-family="Arial, Helvetica, sans-serif">
  <defs>
    <marker id="arr" markerWidth="10" markerHeight="7" refX="9" refY="3.5" orient="auto">
      <polygon points="0 0, 10 3.5, 0 7" fill="#555"/>
    </marker>
    <marker id="arr-red" markerWidth="10" markerHeight="7" refX="9" refY="3.5" orient="auto">
      <polygon points="0 0, 10 3.5, 0 7" fill="#c0392b"/>
    </marker>
    <marker id="arr-purple" markerWidth="10" markerHeight="7" refX="9" refY="3.5" orient="auto">
      <polygon points="0 0, 10 3.5, 0 7" fill="#7d3c98"/>
    </marker>
    <marker id="arr-orange" markerWidth="10" markerHeight="7" refX="9" refY="3.5" orient="auto">
      <polygon points="0 0, 10 3.5, 0 7" fill="#d35400"/>
    </marker>
    <marker id="arr-blue" markerWidth="10" markerHeight="7" refX="9" refY="3.5" orient="auto">
      <polygon points="0 0, 10 3.5, 0 7" fill="#1a5276"/>
    </marker>
    <filter id="shadow">
      <feDropShadow dx="2" dy="2" stdDeviation="3" flood-color="#00000022"/>
    </filter>
  </defs>

  <rect width="420" height="820" fill="#f5f6fa"/>

  <!-- ── SMTP Client ── -->
  <rect x="110" y="20" width="200" height="70" rx="8" fill="#dfe6e9" stroke="#b2bec3" stroke-width="1.5" filter="url(#shadow)"/>
  <text x="210" y="45" text-anchor="middle" font-size="13" font-weight="bold" fill="#2d3436">SMTP Client</text>
  <text x="210" y="63" text-anchor="middle" font-size="11" fill="#636e72">authenticated SASL session</text>

  <line x1="210" y1="90" x2="210" y2="115" stroke="#555" stroke-width="1.5" marker-end="url(#arr)"/>
  <text x="225" y="106" font-size="10" fill="#555">SMTP</text>

  <!-- ── Postfix MTA ── -->
  <rect x="85" y="115" width="250" height="120" rx="8" fill="#ffeaa7" stroke="#fdcb6e" stroke-width="1.5" filter="url(#shadow)"/>
  <text x="210" y="139" text-anchor="middle" font-size="13" font-weight="bold" fill="#2d3436">Postfix MTA</text>
  <line x1="99" y1="147" x2="321" y2="147" stroke="#fdcb6e" stroke-width="1"/>
  <text x="210" y="165" text-anchor="middle" font-size="11" fill="#636e72">MAIL FROM  |  From: header</text>
  <text x="210" y="182" text-anchor="middle" font-size="11" fill="#636e72">{auth_authen}  |  {client_addr}</text>
  <text x="210" y="199" text-anchor="middle" font-size="11" fill="#636e72">milter_mail_macros</text>
  <text x="210" y="216" text-anchor="middle" font-size="10" fill="#aaa">milter protocol</text>

  <line x1="210" y1="235" x2="210" y2="260" stroke="#555" stroke-width="1.5" marker-end="url(#arr)"/>

  <!-- ── mailfrom-milter ── -->
  <rect x="60" y="260" width="300" height="195" rx="8" fill="#ffffff" stroke="#00b894" stroke-width="2" filter="url(#shadow)"/>
  <rect x="60" y="260" width="300" height="34" rx="8" fill="#00b894"/>
  <rect x="60" y="276" width="300" height="18" fill="#00b894"/>
  <text x="210" y="281" text-anchor="middle" font-size="13" font-weight="bold" fill="#ffffff">mailfrom-milter</text>

  <rect x="76" y="306" width="268" height="50" rx="6" fill="#d5f5e3" stroke="#27ae60" stroke-width="1.2"/>
  <text x="210" y="324" text-anchor="middle" font-size="11" font-weight="bold" fill="#1e8449">flag_check_auth</text>
  <text x="210" y="340" text-anchor="middle" font-size="10" fill="#2d6a4f">SASL domain  vs  MAIL FROM domain  —  pass / fail</text>

  <rect x="76" y="368" width="268" height="50" rx="6" fill="#d5f5e3" stroke="#27ae60" stroke-width="1.2"/>
  <text x="210" y="386" text-anchor="middle" font-size="11" font-weight="bold" fill="#1e8449">flag_check_data</text>
  <text x="210" y="402" text-anchor="middle" font-size="10" fill="#2d6a4f">MAIL FROM domain  vs  From: domain  —  pass / fail</text>

  <text x="210" y="438" text-anchor="middle" font-size="10" fill="#888">MF_ACTION  |  REJECT_CODE  |  only authenticated sessions</text>

  <line x1="210" y1="455" x2="210" y2="480" stroke="#555" stroke-width="1.5" marker-end="url(#arr)"/>

  <!-- ── reject ── -->
  <rect x="85" y="480" width="250" height="62" rx="8" fill="#fadbd8" stroke="#c0392b" stroke-width="1.5" filter="url(#shadow)"/>
  <text x="210" y="502" text-anchor="middle" font-size="13" font-weight="bold" fill="#c0392b">reject</text>
  <text x="210" y="519" text-anchor="middle" font-size="10" fill="#7b241c">421 / 550  4/5.7.1  —  MFC010001 / MFC010002</text>
  <text x="210" y="534" text-anchor="middle" font-size="10" fill="#7b241c">SMTP rejection, sender is notified</text>

  <line x1="210" y1="542" x2="210" y2="562" stroke="#7d3c98" stroke-width="1.5" marker-end="url(#arr-purple)"/>

  <!-- ── discard ── -->
  <rect x="85" y="562" width="250" height="62" rx="8" fill="#e8daef" stroke="#7d3c98" stroke-width="1.5" filter="url(#shadow)"/>
  <text x="210" y="584" text-anchor="middle" font-size="13" font-weight="bold" fill="#6c3483">discard</text>
  <text x="210" y="601" text-anchor="middle" font-size="10" fill="#6c3483">250 OK to sender  —  silent drop</text>
  <text x="210" y="616" text-anchor="middle" font-size="10" fill="#6c3483">message never reaches queue</text>

  <line x1="210" y1="624" x2="210" y2="644" stroke="#d35400" stroke-width="1.5" marker-end="url(#arr-orange)"/>

  <!-- ── quarantine_header ── -->
  <rect x="85" y="644" width="250" height="62" rx="8" fill="#fdebd0" stroke="#d35400" stroke-width="1.5" filter="url(#shadow)"/>
  <text x="210" y="664" text-anchor="middle" font-size="12" font-weight="bold" fill="#d35400">quarantine_header</text>
  <text x="210" y="681" text-anchor="middle" font-size="10" fill="#a04000">add X-MF-* headers, pass through</text>
  <text x="210" y="696" text-anchor="middle" font-size="10" fill="#a04000">X-MF-Quarantine: yes / no</text>

  <line x1="210" y1="706" x2="210" y2="726" stroke="#1a5276" stroke-width="1.5" marker-end="url(#arr-blue)"/>

  <!-- ── accept ── -->
  <rect x="85" y="726" width="250" height="62" rx="8" fill="#d6eaf8" stroke="#1a5276" stroke-width="1.5" filter="url(#shadow)"/>
  <text x="210" y="748" text-anchor="middle" font-size="13" font-weight="bold" fill="#1a5276">accept</text>
  <text x="210" y="765" text-anchor="middle" font-size="10" fill="#1a5276">log only, no SMTP intervention</text>
  <text x="210" y="780" text-anchor="middle" font-size="10" fill="#1a5276">pass through</text>

</svg>
